<?xml version="1.0" encoding="UTF-8"?>
<svg id="Layer_1" data-name="Layer 1" xmlns="http://www.w3.org/2000/svg" viewBox="0 0 1024 1024">
  <defs>
    <style>
      .cls-1 {
        fill: #fff;
      }
    </style>
  </defs>
  <path class="cls-1" d="M766.7,347.87h-49.3v16.08c0,7.31-5.98,13.29-13.29,13.29s-13.29-5.98-13.29-13.29v-16.08h-357.36v16.08c0,7.31-5.98,13.29-13.29,13.29s-13.29-5.98-13.29-13.29v-16.08h-49.3c-8.51,0-15.42,6.91-15.42,15.42v335.83c0,8.64,6.91,15.55,15.42,15.55h509.13c8.51,0,15.42-7.04,15.42-15.55v-335.83c0-8.51-6.91-15.42-15.42-15.42ZM290.13,656.06c0-36.55,54.75-36.55,54.75,0s-54.75,36.55-54.75,0ZM317.51,601.44c-15.15,0-27.38-12.23-27.38-27.38s12.23-27.38,27.38-27.38,27.38,12.23,27.38,27.38-12.23,27.38-27.38,27.38ZM447.21,683.44c-15.15,0-27.38-12.23-27.38-27.38s12.23-27.38,27.38-27.38c15.15-.13,27.38,12.23,27.38,27.38s-12.23,27.38-27.38,27.38ZM447.21,601.44c-15.15,0-27.38-12.23-27.38-27.38s12.23-27.38,27.38-27.38,27.38,12.23,27.38,27.38-12.23,27.38-27.38,27.38ZM447.21,519.44c-15.15,0-27.38-12.23-27.38-27.38s12.23-27.38,27.38-27.38,27.38,12.23,27.38,27.38-12.23,27.38-27.38,27.38ZM549.54,656.06c0-36.55,54.75-36.55,54.75,0s-54.75,36.55-54.75,0ZM576.92,601.44c-15.15,0-27.38-12.23-27.38-27.38s12.23-27.38,27.38-27.38,27.38,12.23,27.38,27.38-12.23,27.38-27.38,27.38ZM549.54,492.07c0-36.55,54.75-36.55,54.75,0s-54.75,36.55-54.75,0ZM706.76,601.44c-15.15,0-27.38-12.23-27.38-27.38s12.23-27.38,27.38-27.38,27.38,12.23,27.38,27.38-12.23,27.38-27.38,27.38ZM679.38,492.07c0-36.55,54.75-36.55,54.75,0s-54.75,36.55-54.75,0ZM746.09,435.72h-468.03c-6.92,0-12.57-5.98-12.57-13.29s5.66-13.29,12.57-13.29h468.16c6.92,0,12.57,5.98,12.57,13.29s-5.66,13.29-12.7,13.29Z"/>
  <path class="cls-1" d="M512,12C235.86,12,12,235.86,12,512s223.86,500,500,500,500-223.86,500-500S788.14,12,512,12ZM808.56,699.12c0,23.26-18.74,42.13-42,42.13h-509.13c-23.12,0-42-18.87-42-42.13v-335.83c0-23.12,18.74-42,42-42h49.3v-25.25c0-7.31,5.98-13.29,13.29-13.29s13.29,5.98,13.29,13.29v25.25h357.49v-25.25c0-7.31,5.98-13.29,13.29-13.29s13.29,5.98,13.29,13.29v25.25h49.3c23.12,0,42,18.87,41.86,42v335.83Z"/>
</svg>