<?xml version="1.0" encoding="UTF-8"?>
<svg id="Layer_1" data-name="Layer 1" xmlns="http://www.w3.org/2000/svg" viewBox="0 0 1024 1024">
  <defs>
    <style>
      .cls-1 {
        fill: #fff;
      }
    </style>
  </defs>
  <path class="cls-1" d="M416.69,475.31c-28.84,0-51.58,26.5-51.58,58.72s23.24,58.67,51.58,58.67,51.62-26.46,51.58-58.67c.5-32.26-22.74-58.72-51.58-58.72Z"/>
  <path class="cls-1" d="M607.31,475.31c-28.84,0-51.58,26.5-51.58,58.72s23.24,58.67,51.58,58.67,51.58-26.46,51.58-58.67c.5-32.26-22.74-58.72-51.58-58.72Z"/>
  <path class="cls-1" d="M512,12C235.86,12,12,235.86,12,512s223.86,500,500,500,500-223.86,500-500S788.14,12,512,12ZM796.43,659.63c-49.68,37.15-97.88,59.69-145.26,74.44-11.73-16.09-22.11-33.23-31.09-51.21,17.1-6.5,33.53-14.52,49.05-23.88-4.06-3.04-8.08-6.22-12-9.5-93.28,44.16-195.85,44.16-290.26,0-3.88,3.27-7.9,6.45-12,9.5,15.48,9.31,31.86,17.33,48.96,23.83-8.98,18.02-19.4,35.12-31.09,51.21-47.34-14.75-95.49-37.29-145.17-74.39-10.15-108.82,10.15-219.21,85.06-332.41,37.14-17.42,76.9-30.1,118.46-37.29,5.14,9.22,11.24,21.62,15.34,31.48,43.32-6.64,87.05-6.64,131.18,0,4.11-9.86,10.06-22.26,15.16-31.48,41.52,7.19,81.23,19.82,118.37,37.2,64.94,96.98,97.2,206.35,85.29,332.5Z"/>
</svg>