<?xml version="1.0" encoding="UTF-8"?>
<svg id="Layer_1" data-name="Layer 1" xmlns="http://www.w3.org/2000/svg" viewBox="0 0 1024 1024">
  <defs>
    <style>
      .cls-1 {
        fill: #fff;
      }
    </style>
  </defs>
  <path class="cls-1" d="M512,12C235.86,12,12,235.86,12,512s223.86,500,500,500,500-223.86,500-500S788.14,12,512,12ZM260.56,308.05h502.88c5.52,0,8.35,6.61,4.54,10.6-62.68,65.74-199.85,209.51-244.67,256.34h0c-2.99,3.02-7.07,4.73-11.32,4.73s-8.33-1.71-11.32-4.73c-45.64-47.66-181.62-190.24-244.66-256.34-3.81-3.99-.97-10.6,4.55-10.6ZM216.43,669.32v-314.64c0-5.66,6.91-8.43,10.81-4.33,37.92,39.74,100.4,105.27,154.27,161.65h0s-154.26,161.65-154.26,161.65c-3.91,4.1-10.82,1.33-10.82-4.33ZM763.22,715.95h-502.46c-5.52,0-8.35-6.61-4.54-10.6l150.23-157.62c2.47-2.59,6.61-2.59,9.08,0,22.59,23.59,41.76,43.74,54.18,56.76,23.46,23.06,61.1,23.06,84.57,0h0c12.22-12.82,31.57-32.96,54.18-56.72,2.47-2.6,6.62-2.61,9.09,0l150.21,157.6c3.81,3.99.98,10.6-4.54,10.6ZM807.57,669.31c0,5.66-6.91,8.43-10.82,4.33l-150.13-157.31c-2.32-2.43-2.32-6.24,0-8.66,53.2-55.67,113.58-118.99,150.12-157.46,3.9-4.11,10.82-1.35,10.82,4.32v314.79Z"/>
</svg>