<?xml version="1.0" encoding="UTF-8"?>
<svg id="Layer_1" data-name="Layer 1" xmlns="http://www.w3.org/2000/svg" viewBox="0 0 1024 1024">
  <defs>
    <style>
      .cls-1 {
        fill: #fff;
      }
    </style>
  </defs>
  <path class="cls-1" d="M724.13,351.42c-4.89-12.65-10.74-21.69-20.3-31.25-9.46-9.46-18.6-15.41-31.25-20.3-9.57-3.72-23.92-8.19-50.5-9.35-28.6-1.28-37.21-1.59-109.92-1.59s-81.32.32-109.92,1.59c-26.47,1.17-40.93,5.63-50.5,9.35-12.65,4.89-21.69,10.74-31.25,20.3-9.46,9.46-15.41,18.6-20.3,31.25-3.72,9.57-8.19,23.92-9.35,50.5-1.28,28.6-1.59,37.21-1.59,109.92s.32,81.22,1.59,109.92c1.17,26.47,5.63,40.93,9.35,50.5,4.89,12.65,10.74,21.69,20.3,31.25,9.46,9.46,18.6,15.41,31.25,20.3,9.57,3.72,23.92,8.19,50.5,9.35,28.6,1.28,37.21,1.59,109.92,1.59s81.22-.32,109.92-1.59c26.47-1.17,40.93-5.63,50.5-9.35,12.65-4.89,21.69-10.74,31.25-20.3,9.46-9.46,15.41-18.6,20.3-31.25,3.72-9.57,8.19-23.92,9.35-50.5,1.28-28.6,1.59-37.21,1.59-109.92s-.32-81.22-1.59-109.92c-1.17-26.47-5.63-40.93-9.35-50.5ZM512.16,651.85c-77.18,0-139.79-62.61-139.79-139.79s62.61-139.79,139.79-139.79,139.79,62.61,139.79,139.79-62.61,139.79-139.79,139.79ZM657.48,399.37c-18.07,0-32.64-14.67-32.64-32.64s14.67-32.64,32.64-32.64,32.64,14.67,32.64,32.64-14.67,32.64-32.64,32.64Z"/>
  <path class="cls-1" d="M512.16,421.37c-50.07,0-90.68,40.61-90.68,90.68s40.61,90.68,90.68,90.68,90.68-40.61,90.68-90.68-40.61-90.68-90.68-90.68Z"/>
  <path class="cls-1" d="M513.42,12C237.28,12,13.42,235.86,13.42,512s223.86,500,500,500,500-223.86,500-500S789.56,12,513.42,12ZM782.39,624.31c-1.28,28.92-5.95,48.69-12.65,66.02-6.91,17.86-16.26,33.06-31.36,48.16-15.1,15.1-30.3,24.45-48.16,31.36-17.22,6.7-37.1,11.37-66.02,12.65-29.02,1.28-38.27,1.59-112.15,1.59s-83.13-.32-112.15-1.59c-28.92-1.28-48.69-5.95-66.02-12.65-17.86-6.91-32.95-16.26-48.16-31.36-15.2-15.1-24.45-30.3-31.47-48.26-6.7-17.22-11.37-37.1-12.65-66.02-1.28-29.02-1.59-38.27-1.59-112.15s.32-83.13,1.59-112.26c1.28-28.92,5.95-48.69,12.65-66.02,7.02-17.86,16.37-32.95,31.47-48.16,15.1-15.2,30.3-24.45,48.26-31.47,17.22-6.7,37.1-11.37,66.02-12.65,29.02-1.28,38.27-1.59,112.15-1.59s83.13.32,112.26,1.7c28.92,1.28,48.69,5.95,66.02,12.65,17.86,6.91,32.95,16.26,48.16,31.36,15.2,15.1,24.45,30.3,31.15,48.37,6.7,17.22,11.37,37.1,12.65,66.02,1.28,29.02,1.59,38.27,1.59,112.15s-.32,83.13-1.59,112.15Z"/>
</svg>