<svg width="581" height="504" viewBox="0 0 581 504" fill="none" xmlns="http://www.w3.org/2000/svg">
<path d="M163.387 252.574H160.572V163.394H183.366C190.518 163.394 196.885 164.442 202.473 166.548C208.062 168.653 212.441 171.866 215.612 176.203C218.782 180.54 220.372 186.146 220.372 193.036C220.372 199.927 218.672 205.955 215.274 210.335C211.875 214.714 207.385 217.91 201.797 219.922C196.208 221.934 190.062 222.941 183.357 222.941H161.899V220.125H183.357C189.529 220.125 195.202 219.229 200.385 217.445C205.568 215.661 209.727 212.778 212.856 208.796C215.984 204.822 217.548 199.563 217.548 193.036C217.548 186.509 216.051 181.665 213.059 177.682C210.066 173.709 205.999 170.775 200.858 168.898C195.718 167.021 189.884 166.083 183.357 166.083H163.379V252.574H163.387Z" fill="white"/>
<path d="M290.512 253.648C284.34 253.648 278.557 252.49 273.146 250.165C267.735 247.84 262.975 244.576 258.866 240.374C254.757 236.172 251.561 231.303 249.278 225.756C246.996 220.21 245.863 214.224 245.863 207.79C245.863 201.356 247.021 195.522 249.346 190.018C251.671 184.523 254.884 179.695 259.001 175.535C263.11 171.376 267.853 168.137 273.214 165.812C278.574 163.487 284.34 162.329 290.512 162.329C296.684 162.329 302.45 163.496 307.81 165.812C313.171 168.137 317.914 171.376 322.023 175.535C326.132 179.695 329.328 184.523 331.61 190.018C333.893 195.514 335.026 201.441 335.026 207.79C335.026 214.14 333.859 220.218 331.543 225.756C329.218 231.303 325.996 236.172 321.887 240.374C317.778 244.576 313.035 247.84 307.675 250.165C302.315 252.49 296.591 253.648 290.512 253.648ZM290.512 250.833C296.236 250.833 301.596 249.742 306.601 247.544C311.607 245.354 316.028 242.294 319.875 238.362C323.714 234.431 326.732 229.848 328.93 224.615C331.12 219.381 332.219 213.776 332.219 207.782C332.219 201.787 331.145 196.342 328.998 191.151C326.85 185.968 323.857 181.428 320.011 177.539C316.164 173.65 311.742 170.615 306.737 168.416C301.731 166.227 296.32 165.128 290.512 165.128C284.704 165.128 279.403 166.227 274.355 168.416C269.308 170.606 264.877 173.65 261.081 177.539C257.277 181.428 254.284 185.968 252.094 191.151C249.904 196.334 248.805 201.88 248.805 207.782C248.805 213.683 249.879 219.381 252.026 224.615C254.174 229.848 257.141 234.431 260.946 238.362C264.742 242.294 269.172 245.354 274.22 247.544C279.267 249.734 284.704 250.833 290.512 250.833Z" fill="white"/>
<path d="M374.053 252.574H371.238V163.394H394.032C401.184 163.394 407.551 164.442 413.139 166.548C418.728 168.653 423.107 171.866 426.278 176.203C429.448 180.54 431.038 186.146 431.038 193.036C431.038 199.927 429.338 205.955 425.94 210.335C422.541 214.714 418.051 217.91 412.463 219.922C406.874 221.934 400.728 222.941 394.023 222.941H372.565V220.125H394.023C400.195 220.125 405.868 219.229 411.051 217.445C416.234 215.661 420.393 212.778 423.522 208.796C426.65 204.822 428.214 199.563 428.214 193.036C428.214 186.509 426.717 181.665 423.724 177.682C420.731 173.709 416.665 170.775 411.524 168.898C406.384 167.021 400.55 166.083 394.023 166.083H374.045V252.574H374.053Z" fill="white"/>
<path d="M198.187 414.566C192.015 414.566 186.232 413.408 180.821 411.083C175.41 408.758 170.65 405.494 166.541 401.292C162.432 397.09 159.236 392.221 156.953 386.674C154.67 381.136 153.537 375.142 153.537 368.708C153.537 362.274 154.696 356.44 157.021 350.936C159.346 345.441 162.559 340.613 166.676 336.453C170.785 332.294 175.528 329.055 180.888 326.73C186.249 324.405 192.015 323.247 198.187 323.247C204.359 323.247 210.125 324.414 215.485 326.73C220.845 329.055 225.588 332.294 229.697 336.453C233.806 340.613 237.002 345.441 239.285 350.936C241.568 356.432 242.701 362.359 242.701 368.708C242.701 375.057 241.534 381.136 239.217 386.674C236.892 392.221 233.671 397.09 229.562 401.292C225.445 405.494 220.71 408.758 215.35 411.083C209.989 413.408 204.266 414.566 198.187 414.566ZM198.187 411.751C203.911 411.751 209.271 410.66 214.276 408.462C219.281 406.272 223.711 403.212 227.55 399.28C231.397 395.349 234.407 390.766 236.605 385.533C238.795 380.299 239.894 374.694 239.894 368.7C239.894 362.705 238.82 357.26 236.673 352.069C234.525 346.886 231.532 342.346 227.685 338.457C223.838 334.568 219.416 331.533 214.411 329.334C209.406 327.145 203.995 326.046 198.187 326.046C192.378 326.046 187.077 327.145 182.03 329.334C176.982 331.524 172.552 334.568 168.756 338.457C164.951 342.346 161.958 346.886 159.769 352.069C157.579 357.252 156.48 362.798 156.48 368.7C156.48 374.601 157.553 380.299 159.701 385.533C161.848 390.766 164.816 395.349 168.621 399.28C172.417 403.212 176.847 406.272 181.895 408.462C186.942 410.652 192.378 411.751 198.187 411.751Z" fill="white"/>
<path d="M309.222 414.431C298.138 414.431 289.87 410.965 284.416 404.04C278.963 397.116 276.241 387.833 276.241 376.216V324.321H279.191V376.216C279.191 386.945 281.652 395.526 286.564 401.96C291.476 408.394 299.034 411.616 309.222 411.616C319.41 411.616 326.969 408.394 331.881 401.96C336.793 395.526 339.253 386.945 339.253 376.216V324.321H342.204V376.216C342.204 387.841 339.473 397.116 334.028 404.04C328.575 410.973 320.306 414.431 309.222 414.431Z" fill="white"/>
<path d="M432.458 324.321V327.001L370.637 327.136V324.321H432.458ZM400.136 324.321H402.951V413.493H400.136V324.321Z" fill="white"/>
<path d="M289.954 213.328C293.526 213.328 296.422 210.432 296.422 206.86C296.422 203.288 293.526 200.392 289.954 200.392C286.382 200.392 283.486 203.288 283.486 206.86C283.486 210.432 286.382 213.328 289.954 213.328Z" fill="white"/>
<path d="M230.433 364.768L246.345 367.389C248.585 367.761 248.585 370.982 246.345 371.354L230.433 373.975C215.417 376.444 203.657 388.213 201.18 403.229L198.559 419.14C198.187 421.381 194.965 421.381 194.593 419.14L191.972 403.229C189.504 388.213 177.735 376.453 162.719 373.975L146.807 371.354C144.567 370.982 144.567 367.761 146.807 367.389L162.719 364.768C177.735 362.299 189.495 350.531 191.972 335.515L194.593 319.603C194.965 317.363 198.187 317.363 198.559 319.603L201.18 335.515C203.648 350.531 215.417 362.291 230.433 364.768Z" fill="white"/>
<path d="M291.205 15.3032L291.493 112.118" stroke="white" stroke-width="1.80523" stroke-linecap="round" stroke-linejoin="round"/>
<path d="M291.155 0C288.5 7.21186 283.968 16.1654 279.157 21.7201L291.205 17.3237L303.279 21.6525C298.434 16.1316 293.843 7.20341 291.155 0.0084547V0Z" fill="white"/>
<path d="M566.879 495.42L482.89 447.262" stroke="white" stroke-width="1.80523" stroke-linecap="round" stroke-linejoin="round"/>
<path d="M580.153 503.029C575.233 497.128 569.746 488.724 567.344 481.782L565.129 494.414L555.347 502.708C562.559 501.27 572.578 501.761 580.153 503.029Z" fill="white"/>
<path d="M13.2569 494.101L96.95 445.444" stroke="white" stroke-width="1.80523" stroke-linecap="round" stroke-linejoin="round"/>
<path d="M0.0167923 501.795C7.58375 500.484 17.6026 499.935 24.8229 501.33L14.9901 493.095L12.6988 480.472C10.34 487.43 4.90361 495.868 0.0167923 501.795Z" fill="white"/>
</svg>
